<svg width="69" height="26" viewBox="0 0 69 26" fill="none" xmlns="http://www.w3.org/2000/svg">
<path d="M10.5798 22.377H6.31738L0 5.32787H4.75565L9.44084 19.0501L13.6798 5.32787H16.5684L10.5798 22.377Z" fill="#3B2607"/>
<path d="M30.7532 22.377H18.6116V5.32787H30.7532V7.50638H23.2733V12.775H29.0505V14.9417H23.2733V20.1985H30.7532V22.377ZM29.6142 0L25.8918 4.19126H23.5551L25.8801 0H29.6142Z" fill="#3B2607"/>
<path d="M50.0341 13.8288C50.0341 14.6576 49.9245 15.4469 49.7053 16.1967C49.4861 16.9387 49.1769 17.6254 48.7777 18.2568C48.3862 18.8883 47.9165 19.4605 47.3686 19.9736C46.8206 20.4787 46.2139 20.9089 45.5485 21.2641C44.8909 21.6193 44.1825 21.8956 43.4231 22.0929C42.6716 22.2823 41.8966 22.377 41.0982 22.377H33.6418V5.32787H41.0982C41.8966 5.32787 42.6716 5.42259 43.4231 5.61202C44.1747 5.80146 44.8792 6.07377 45.5368 6.42896C46.2022 6.77626 46.8089 7.20249 47.3568 7.70765C47.9126 8.21281 48.3862 8.78112 48.7777 9.41257C49.1769 10.0361 49.4861 10.7228 49.7053 11.4727C49.9245 12.2146 50.0341 13 50.0341 13.8288ZM45.3019 13.8288C45.3019 12.9053 45.1884 12.0291 44.9614 11.2004C44.7422 10.3637 44.3978 9.62963 43.9281 8.99818C43.4584 8.36673 42.8595 7.86551 42.1315 7.49454C41.4113 7.12356 40.5463 6.93807 39.5364 6.93807H38.3035V20.7195H39.5364C40.5306 20.7195 41.3878 20.534 42.108 20.163C42.836 19.7842 43.4349 19.279 43.9046 18.6475C44.3821 18.0082 44.7344 17.2741 44.9614 16.4454C45.1884 15.6166 45.3019 14.7444 45.3019 13.8288Z" fill="#3B2607"/>
<path d="M68.998 14.2195V14.4444C68.9823 15.1075 68.9118 15.7942 68.7866 16.5046C68.6692 17.2149 68.5009 17.9253 68.2817 18.6357C68.0625 19.3461 67.8002 20.0486 67.4949 20.7432C67.1896 21.4378 66.8452 22.1008 66.4616 22.7322C66.0859 23.3716 65.6788 23.9675 65.2404 24.52C64.802 25.0805 64.3402 25.5738 63.8548 26L62.1052 24.9818C62.3792 24.5161 62.6258 24.007 62.845 23.4545C63.072 22.9098 63.2755 22.3376 63.4556 21.7377C63.6356 21.1378 63.7883 20.5222 63.9135 19.8907C64.0466 19.2593 64.1562 18.6318 64.2423 18.0082C64.3284 17.3846 64.391 16.7729 64.4302 16.173C64.4772 15.5653 64.5006 14.9891 64.5006 14.4444C64.5006 14.0182 64.4967 13.5367 64.4889 13C64.4889 12.4554 64.4576 11.9029 64.395 11.3424C64.3402 10.782 64.2462 10.2374 64.1131 9.70856C63.9801 9.17183 63.7804 8.69429 63.5143 8.27596C63.256 7.85762 62.9193 7.52216 62.5044 7.26958C62.0974 7.017 61.5885 6.89071 60.9779 6.89071C60.4378 6.89071 59.972 6.98543 59.5806 7.17486C59.197 7.35641 58.8682 7.60504 58.5942 7.92076C58.3281 8.2286 58.1128 8.58774 57.9484 8.99818C57.7919 9.40862 57.6666 9.84274 57.5727 10.3005C57.4866 10.7505 57.4278 11.2083 57.3965 11.674C57.373 12.1318 57.3613 12.5659 57.3613 12.9763V16.2796H62.4222V18.2332H57.3613V22.377H52.6996V13.7104C52.6996 12.4712 52.8953 11.3188 53.2867 10.2532C53.6781 9.18761 54.23 8.26412 54.9424 7.4827C55.6626 6.69338 56.5237 6.07772 57.5257 5.6357C58.5355 5.18579 59.6589 4.96084 60.8957 4.96084C61.7334 4.96084 62.5162 5.08318 63.2442 5.32787C63.9801 5.56466 64.6494 5.89617 65.2522 6.3224C65.8549 6.74074 66.3912 7.24196 66.8608 7.82605C67.3384 8.40225 67.7337 9.0337 68.0468 9.7204C68.3678 10.4071 68.6105 11.1333 68.7748 11.8989C68.9392 12.6645 69.0136 13.4381 68.998 14.2195Z" fill="#3B2607"/>
</svg>
